<svg id="circles" xmlns="http://www.w3.org/2000/svg" viewBox="0 0 1762.91 906.65"><defs><style>.cls-1{fill:#3994ff;}</style></defs><circle class="cls-1" cx="93.13" cy="282.14" r="19.13"/><circle class="cls-1" cx="144.44" cy="124.21" r="32.44"/><circle class="cls-1" cx="456.22" cy="137.9" r="8.41"/><circle class="cls-1" cx="1686.7" cy="145.65" r="38"/><circle class="cls-1" cx="1542.08" cy="23.01" r="9.56"/><circle class="cls-1" cx="1380.76" cy="129.09" r="14.49"/><circle class="cls-1" cx="339.95" cy="202.46" r="10.43"/><circle class="cls-1" cx="1286.5" cy="6.67" r="6.67"/><circle class="cls-1" cx="19.13" cy="653.14" r="19.13"/><circle class="cls-1" cx="576.44" cy="728.21" r="32.44"/><circle class="cls-1" cx="382.22" cy="508.9" r="8.41"/><circle class="cls-1" cx="1292.87" cy="868.65" r="38"/><circle class="cls-1" cx="1468.08" cy="394.01" r="9.56"/><circle class="cls-1" cx="1306.76" cy="500.09" r="14.49"/><circle class="cls-1" cx="265.95" cy="573.46" r="10.43"/><circle class="cls-1" cx="1212.5" cy="377.67" r="6.67"/><circle class="cls-1" cx="302.19" cy="705.62" r="9.56"/><circle class="cls-1" cx="1730.47" cy="500.11" r="32.44"/><circle class="cls-1" cx="1489.4" cy="666.55" r="8.41"/><circle class="cls-1" cx="919.4" cy="532.55" r="8.41"/><circle class="cls-1" cx="1539.52" cy="789.74" r="10.43"/><circle class="cls-1" cx="1675.07" cy="769.65" r="9.56"/><circle class="cls-1" cx="251.43" cy="891.9" r="14.49"/><circle class="cls-1" cx="99.74" cy="862.48" r="6.67"/></svg>